<svg xmlns="http://www.w3.org/2000/svg" version="1.1" xmlns:xlink="http://www.w3.org/1999/xlink" xmlns:svgjs="http://svgjs.dev/svgjs" width="1440" height="560" preserveAspectRatio="none" viewBox="0 0 1440 560">
    <g mask="url(&quot;#SvgjsMask1011&quot;)" fill="none">
        <path d="M403.646,325.704C434.159,326.313,459.341,304.08,474.065,277.348C488.229,251.633,488.938,221.307,475.534,195.188C460.764,166.407,435.995,140.353,403.646,140.13C371.015,139.905,344.344,164.863,330.019,194.183C317.341,220.132,323.825,249.432,337.932,274.632C352.456,300.577,373.918,325.111,403.646,325.704" fill="rgba(0, 255, 0, 0.3)" class="triangle-float1"></path>
        <path d="M511.89,430.197C549.016,429.592,587.126,419.755,607.057,388.427C628.366,354.933,629.096,311.652,609.146,277.331C589.292,243.175,551.322,222.275,511.89,224.705C475.896,226.923,452.018,257.282,433.39,288.16C413.862,320.529,392.909,358.532,411.195,391.618C429.83,425.336,473.37,430.825,511.89,430.197" fill="rgba(0, 255, 0, 0.440)" class="triangle-float1"></path>
        <path d="M595.842,211.601C628.304,210.614,649.954,182.044,666.018,153.818C681.851,125.998,694.893,93.075,679.169,65.193C663.252,36.97,628.192,27.554,595.842,29.384C566.739,31.03,542.467,48.834,527.382,73.777C511.651,99.787,504.338,131.101,517.86,158.325C532.87,188.543,562.117,212.627,595.842,211.601" fill="rgba(0, 255, 0, 0.450)" class="triangle-float1"></path>
        <path d="M666.916,715.629C716.986,715.251,762.609,689.343,788.997,646.79C816.996,601.638,827.208,545.098,801.49,498.61C775.054,450.824,721.523,426.761,666.916,426.117C611.058,425.458,554.137,446.694,526.728,495.369C499.731,543.312,512.058,602.239,541.601,648.657C568.857,691.482,616.154,716.012,666.916,715.629" fill="rgba(0, 255, 0, 0.3)" class="triangle-float3"></path>
        <path d="M957.783,372.008C1002.231,372.06,1045.167,349.695,1065.839,310.347C1085.329,273.249,1072.357,230.2,1051.327,193.953C1030.396,157.876,999.491,123.768,957.783,124.104C916.483,124.437,887.498,159.691,866.813,195.439C846.082,231.266,831.201,273.301,850.159,310.097C870.475,349.529,913.425,371.957,957.783,372.008" fill="rgba(0, 255, 0, 0.4)" class="triangle-float1"></path>
        <path d="M712.943,217.305C737.181,215.89,751.834,192.914,763.022,171.367C773.098,151.962,779.351,129.362,768.448,110.409C757.522,91.414,734.837,85.231,712.943,84.311C688.819,83.298,661.967,85.187,648.728,105.379C634.516,127.055,638.698,155.39,651.597,177.873C664.563,200.472,686.933,218.824,712.943,217.305" fill="rgba(0, 255, 0, 0.3)" class="triangle-float1"></path>
        <path d="M115.324,474.591C162.902,474.289,208.513,452.799,232.821,411.898C257.648,370.123,257.982,317.81,233.42,275.878C209.116,234.385,163.401,212.295,115.324,211.305C65.279,210.274,14.062,227.802,-11.511,270.833C-37.562,314.668,-31.728,370.114,-4.781,413.404C20.668,454.287,67.168,474.896,115.324,474.591" fill="rgba(0, 255, 0, 0.468)" class="triangle-float1"></path>
        <path d="M1332.259,259.109C1374.827,261.053,1418.804,248.386,1442.149,212.738C1467.659,173.784,1471.594,122.613,1447.894,82.531C1424.559,43.067,1378.06,24.84,1332.259,26.888C1289.939,28.781,1253.122,54.719,1233.249,92.13C1214.574,127.288,1218.173,169.195,1238.477,203.438C1258.35,236.953,1293.336,257.332,1332.259,259.109" fill="rgba(0,255,0,0.4)" class="triangle-float3"></path>
        <path d="M1165.897,701.014C1211.009,700.649,1246.579,668.735,1270.737,630.635C1297.255,588.814,1319.709,538.428,1296.837,494.507C1272.7,448.156,1217.991,425.16,1165.897,429.311C1119.716,432.991,1088.443,471.928,1066.716,512.844C1046.639,550.653,1038.116,594.485,1058.077,632.356C1079.37,672.755,1120.231,701.383,1165.897,701.014" fill="rgba(0, 255, 0, 0.3)" class="triangle-float2"></path>
        <path d="M1005.032,621.645C1061.172,621.993,1113.818,588.318,1137.774,537.545C1159.08,492.389,1135.181,443.405,1109.266,400.727C1084.698,360.268,1052.359,319.77,1005.032,318.943C956.642,318.098,919.158,355.45,894.295,396.972C868.551,439.965,852.958,490.968,875.112,535.916C899.697,585.797,949.422,621.3,1005.032,621.645" fill="rgba(0, 255, 0, 0.4)" class="triangle-float1"></path>
    </g>
    <defs>
        <mask id="SvgjsMask1011">
            <rect width="1440" height="560" fill="#ffffff"></rect>
        </mask>
        <style>
            @keyframes float1 {
                    0%{transform: translate(0, 0)}
                    50%{transform: translate(-10px, 0)}
                    100%{transform: translate(0, 0)}
                }

                .triangle-float1 {
                    animation: float1 5s infinite;
                }

                @keyframes float2 {
                    0%{transform: translate(0, 0)}
                    50%{transform: translate(-5px, -5px)}
                    100%{transform: translate(0, 0)}
                }

                .triangle-float2 {
                    animation: float2 4s infinite;
                }

                @keyframes float3 {
                    0%{transform: translate(0, 0)}
                    50%{transform: translate(0, -10px)}
                    100%{transform: translate(0, 0)}
                }

                .triangle-float3 {
                    animation: float3 6s infinite;
                }
        </style>
    </defs>
</svg>